<?xml version="1.0" encoding="utf-8"?>
<!-- Generator: Adobe Illustrator 24.0.1, SVG Export Plug-In . SVG Version: 6.00 Build 0)  -->
<svg version="1.1" id="Слой_1" xmlns="http://www.w3.org/2000/svg" xmlns:xlink="http://www.w3.org/1999/xlink" x="0px" y="0px"
	 viewBox="0 0 1240 55" style="enable-background:new 0 0 1240 55;" xml:space="preserve">
<style type="text/css">
	.st0{clip-path:url(#SVGID_2_);}
	.st1{fill:#1172AB;}
	.st2{opacity:0.4;}
	.st3{fill:#6E0014;}
	.st4{fill:#AAC8BF;fill-opacity:0.6;}
	.st5{fill:#4C9B86;}
</style>
<g>
	<defs>
		<rect id="SVGID_1_" width="1240" height="55"/>
	</defs>
	<clipPath id="SVGID_2_">
		<use xlink:href="#SVGID_1_"  style="overflow:visible;"/>
	</clipPath>
	<g class="st0">
		<rect class="st1" width="1240" height="55"/>
		<g class="st2">
			<path class="st3" d="M-37.749-25.415l192.657,12.851l54.129,80.534L-31.419,51.674L-37.749-25.415z"/>
			<path class="st4" d="M238.001-31.429L397.735-11.32l-82.568,83.019L110.36,56.988L238.001-31.429z"/>
			<path class="st5" d="M289.215,66.352l66.526-22.8l43.228,14.675l-31.49,14.626L289.215,66.352z"/>
		</g>
		<g class="st2">
			<path class="st3" d="M529.618-83.567l407.335,27.172L1051.4,113.878L543.001,79.422L529.618-83.567z"/>
			<path class="st4" d="M1112.64-96.283l337.73,42.516l-174.58,175.529L842.766,90.658L1112.64-96.283z"/>
			<path class="st5" d="M1220.92,110.456l140.66-48.206l91.39,31.027l-66.58,30.924L1220.92,110.456z"/>
		</g>
	</g>
</g>
</svg>
